<?xml version="1.0" encoding="utf-8"?>
<!-- Generator: Adobe Illustrator 23.0.0, SVG Export Plug-In . SVG Version: 6.00 Build 0)  -->
<svg version="1.1" id="Layer_1" xmlns="http://www.w3.org/2000/svg" xmlns:xlink="http://www.w3.org/1999/xlink" x="0px" y="0px"
	 viewBox="0 0 125.1 49.1" style="enable-background:new 0 0 125.1 49.1;" xml:space="preserve">
<style type="text/css">
	.st0{fill-rule:evenodd;clip-rule:evenodd;fill:#FFFFFF;}
</style>
<path id="Fill-1" class="st0" d="M122.9,27.1c-8,0.5-15.3-0.4-23-2.6c-2.8-0.8-4,3.5-1.2,4.3c4.6,1.4,9.2,2.3,13.8,2.7
	c-20.6,6.5-42.3,12.9-64,9.1c-9.6-1.7-19.2-5.2-26.8-11.5C12.9,22,7.7,11.8,3.9,1.3C3-1-0.7,0,0.1,2.4C3.9,12.8,8.9,23,17.2,30.5
	c7.6,6.9,17.2,11.2,27.2,13.3c23.2,5.1,46.6-1.5,68.8-8.4c-3.5,3.3-7,6.6-10.5,9.9c-2.1,2,1.1,5.1,3.2,3.2
	c6.3-5.8,12.4-11.7,18.7-17.5C125.8,29.7,124.8,27,122.9,27.1"/>
</svg>
