<?xml version="1.0" encoding="utf-8"?>
<!-- Generator: Adobe Illustrator 23.0.0, SVG Export Plug-In . SVG Version: 6.00 Build 0)  -->
<svg version="1.1" id="Layer_1" xmlns="http://www.w3.org/2000/svg" xmlns:xlink="http://www.w3.org/1999/xlink" x="0px" y="0px"
	 viewBox="0 0 1308.1 1323" style="enable-background:new 0 0 1308.1 1323;" xml:space="preserve">
<style type="text/css">
	.st0{fill:#231F20;}
</style>
<title>result-fireworks</title>
<rect x="40.9" y="349.9" transform="matrix(0.4495 -0.8933 0.8933 0.4495 -330.9791 258.6642)" class="st0" width="6.9" height="95.9"/>
<rect x="1213.8" y="485" transform="matrix(0.96 -0.28 0.28 0.96 -86.3051 372.8153)" class="st0" width="95.9" height="6.9"/>
<rect x="483.6" y="-0.4" transform="matrix(0.975 -0.2221 0.2221 0.975 1.6077 109.3373)" class="st0" width="6.9" height="95.9"/>
<rect x="1171.6" y="1004" transform="matrix(0.572 -0.8203 0.8203 0.572 -359.9511 1414.0946)" class="st0" width="6.9" height="95.9"/>
<rect x="260.8" y="1246.5" transform="matrix(0.4983 -0.867 0.867 0.4983 -928.7097 896.2278)" class="st0" width="98.4" height="8.1"/>
<rect x="41.3" y="919.4" transform="matrix(0.8983 -0.4393 0.4393 0.8983 -395.2847 140.7855)" class="st0" width="130.5" height="10.1"/>
<rect x="536.9" y="1253.6" transform="matrix(6.982913e-02 -0.9976 0.9976 6.982913e-02 -695.3724 1771.5925)" class="st0" width="130.8" height="10.2"/>
<rect x="1199.2" y="788.9" transform="matrix(0.3192 -0.9477 0.9477 0.3192 10.2167 1722.828)" class="st0" width="10.2" height="130.8"/>
<rect x="909.6" y="168.5" transform="matrix(0.5531 -0.8331 0.8331 0.5531 291.0531 889.7516)" class="st0" width="130.5" height="10.1"/>
<rect x="246.9" y="150" transform="matrix(0.7522 -0.659 0.659 0.7522 -79.4182 219.3729)" class="st0" width="10.1" height="130.5"/>
</svg>
