<?xml version="1.0" encoding="utf-8"?>
<!-- Generator: Adobe Illustrator 23.0.0, SVG Export Plug-In . SVG Version: 6.00 Build 0)  -->
<svg version="1.1" id="Layer_1" xmlns="http://www.w3.org/2000/svg" xmlns:xlink="http://www.w3.org/1999/xlink" x="0px" y="0px"
	 viewBox="0 0 1356.5 1410.1" style="enable-background:new 0 0 1356.5 1410.1;" xml:space="preserve">
<style type="text/css">
	.st0{fill:#231F20;}
</style>
<path class="st0" d="M650.8,1410.1c-6-8.7-11.8-17.1-17.6-25.5l-29.3,10.5c1.3-1.9,2.4-3.5,3.6-5.1c4.7-6.7,14.9-21.1,14.9-21.1
	s-11.3-16.4-16.6-24c-0.2-0.3-0.4-0.6-0.8-1.2l28.1,9l18.3-24.9l0.3,0.1c0.1,10.3,0.2,20.5,0.4,30.8l28.1,9
	c-0.6,0.2-0.9,0.4-1.2,0.5c-8.7,3.2-27.6,9.9-27.6,9.9s-0.1,20.8-0.2,30.5C650.9,1408.9,650.9,1409.3,650.8,1410.1"/>
<path class="st0" d="M539.2,17.3l-16.5,13.9l9.2,19.6c-1.4-0.8-2.6-1.4-3.8-2.1l-15.6-8.9L497,52.9l-0.8,0.6
	c1.5-6.8,2.9-13.4,4.4-20l-18.4-11c0-0.1,0-0.1,0-0.2l21.3-2.3c1.5-6.6,2.9-13.2,4.4-20c0.2,0.4,0.3,0.6,0.5,0.8
	c2.8,5.8,8.7,18.5,8.7,18.5l21.1-1.9C538.4,17.4,538.7,17.4,539.2,17.3"/>
<path class="st0" d="M1356.5,396l-31-1.5c-3.2,9.8-6.3,19.6-9.5,29.6c-0.7-2.2-1.3-4-1.9-5.9c-2.4-7.8-7.7-24.7-7.7-24.7l-29.2-1.4
	c-0.4,0-0.8-0.1-1.4-0.1l24.2-16.8l-8.7-29.6c0.1-0.1,0.1-0.1,0.2-0.2l24.8,18.5l24.2-16.8c-0.2,0.6-0.2,1-0.3,1.3
	c-2.8,8.9-8.9,27.9-8.9,27.9l24,18.7C1355.6,395.3,1355.9,395.6,1356.5,396"/>
<path class="st0" d="M842.8,390.4l-8.3-28.9l-30.1,0.5c1.8-1.3,3.3-2.5,4.8-3.6c6.4-4.7,20.2-14.8,20.2-14.8s-5.3-18.5-7.8-27.2
	c-0.1-0.4-0.2-0.7-0.3-1.3l22.9,16.9l24.4-17.2l0.2,0.2c-3.1,9.4-6.1,18.9-9.2,28.4l22.9,16.9c-0.6,0-0.9,0.1-1.3,0.1
	c-9,0.2-28.4,0.6-28.4,0.6l-9.6,27.8C843.2,389.4,843.1,389.7,842.8,390.4"/>
<path class="st0" d="M1315,933.5l-38.8-1.4c-3.8,12.3-7.5,24.6-11.4,37.3c-0.9-2.7-1.7-5-2.5-7.4c-3.2-9.7-10.1-30.8-10.1-30.8
	l-36.6-1.3l-1.8-0.1l30-21.4c-3.8-12.4-7.6-24.7-11.3-36.9l0.3-0.2L1264,894l30-21.5c-0.2,0.8-0.3,1.2-0.4,1.6
	c-3.3,11.1-10.7,35.1-10.7,35.1l30.4,23C1313.8,932.6,1314.2,932.9,1315,933.5"/>
<path class="st0" d="M132.2,1026.9c-5.8-8.4-11.5-16.6-17.2-24.8l-28.5,10.2c1.3-1.8,2.4-3.4,3.4-5c4.6-6.5,14.5-20.5,14.5-20.5
	l-16.2-23.4c-0.2-0.3-0.4-0.6-0.8-1.2l27.3,8.8l17.8-24.2l0.3,0.1c0.1,10,0.2,20,0.3,30l27.3,8.8c-0.6,0.2-0.9,0.4-1.2,0.5
	c-8.5,3.1-26.8,9.7-26.8,9.7s-0.1,20.3-0.1,29.6C132.3,1025.8,132.3,1026.2,132.2,1026.9"/>
<path class="st0" d="M147.1,426.6l-56.5-2L74,478.9c-1.3-4-2.5-7.4-3.6-10.7c-4.6-14.1-14.6-44.8-14.6-44.8l-53.2-1.9
	c-0.7,0-1.4-0.1-2.6-0.2l43.7-31.2c-5.6-18-11-35.9-16.5-53.8l0.4-0.3L73,369l43.7-31.2c-0.3,1.1-0.4,1.8-0.6,2.4
	c-4.9,16.2-15.5,51.1-15.5,51.1l44.3,33.5C145.6,425.2,146.1,425.7,147.1,426.6"/>
</svg>
