<?xml version="1.0" encoding="utf-8"?>
<svg version="1.1" id="Layer_1" xmlns="http://www.w3.org/2000/svg" xmlns:xlink="http://www.w3.org/1999/xlink" x="0px" y="0px"
	 viewBox="0 0 32 32" style="enable-background:new 0 0 32 32;" xml:space="preserve">
<style type="text/css">
	.st0{fill-rule:evenodd;clip-rule:evenodd;}
</style>
<path id="Fill-1" class="st0" d="M12,20c-4.4,0-8-3.6-8-8s3.6-8,8-8c4.4,0,8,3.6,8,8S16.4,20,12,20L12,20z M22.9,20.1h-1.4l-0.5-0.5
	c1.8-2.1,2.9-4.8,2.9-7.7C23.8,5.3,18.5,0,11.9,0C5.3,0,0,5.3,0,11.9s5.3,11.9,11.9,11.9c2.9,0,5.7-1.1,7.7-2.9l0.5,0.5v1.4l9.1,9.1
	l2.7-2.7L22.9,20.1z"/>
</svg>
