<?xml version="1.0" encoding="UTF-8"?>
<svg width="477px" height="321px" viewBox="0 0 477 321" version="1.1" xmlns="http://www.w3.org/2000/svg" xmlns:xlink="http://www.w3.org/1999/xlink">
    <!-- Generator: Sketch 55 (78076) - https://sketchapp.com -->
    <title>Group 12</title>
    <desc>Created with Sketch.</desc>
    <defs>
        <polygon id="path-1" points="0.5574 0.5581 28.236 0.5581 28.236 30 0.5574 30"></polygon>
    </defs>
    <g id="Home" stroke="none" stroke-width="1" fill="none" fill-rule="evenodd">
        <g id="Home-Copy-4" transform="translate(-242.000000, -346.000000)">
            <g id="Group-12" transform="translate(242.000000, 346.000000)">
                <g id="Group-2" transform="translate(0.000300, 0.000700)">
                    <path d="M78.7121,69.8247 C74.1071,68.4447 69.6241,67.1017 65.1101,65.7507 C62.6331,69.7637 60.1701,73.7547 57.6271,77.8777 C57.5561,76.8337 57.4901,75.9367 57.4361,75.0397 C57.2091,71.3187 56.7311,63.2257 56.7311,63.2257 C56.7311,63.2257 47.9891,60.6057 43.9221,59.3837 C43.7561,59.3337 43.5921,59.2747 43.3081,59.1797 C47.5741,57.5547 51.7311,55.9717 55.9051,54.3817 C55.7071,49.6437 55.5101,44.9537 55.3131,40.2627 C55.3531,40.2487 55.3921,40.2327 55.4321,40.2187 C58.4061,43.8507 61.3791,47.4827 64.3661,51.1307 C68.5451,49.5387 72.6951,47.9577 76.9761,46.3267 C76.8431,46.5787 76.7751,46.7267 76.6911,46.8657 C74.4761,50.4887 69.6671,58.2987 69.6671,58.2987 C69.6671,58.2987 75.5691,65.7847 78.2951,69.2447 C78.4141,69.3957 78.5201,69.5567 78.7121,69.8247" id="Fill-1" fill="#FFFFFF"></path>
                    <path d="M20.197,257.1031 C17.57,256.3161 15.012,255.5491 12.437,254.7791 C11.024,257.0691 9.62,259.3451 8.168,261.6971 C8.128,261.1011 8.091,260.5891 8.059,260.0781 C7.93,257.9561 7.657,253.3381 7.657,253.3381 C7.657,253.3381 2.67,251.8431 0.35,251.1471 C0.255,251.1181 0.162,251.0841 -5.5067062e-14,251.0311 C2.433,250.1031 4.804,249.2001 7.186,248.2921 C7.073,245.5901 6.961,242.9151 6.848,240.2391 C6.871,240.2301 6.894,240.2211 6.916,240.2131 C8.613,242.2861 10.309,244.3581 12.013,246.4381 C14.397,245.5301 16.765,244.6281 19.207,243.6981 C19.131,243.8411 19.092,243.9261 19.044,244.0051 C17.78,246.0721 15.037,250.5271 15.037,250.5271 C15.037,250.5271 18.404,254.7981 19.959,256.7721 C20.027,256.8581 20.088,256.9501 20.197,257.1031" id="Fill-3" fill="#FFFFFF"></path>
                    <path d="M389.1501,249.6226 C386.5231,248.8356 383.9651,248.0696 381.3901,247.2986 C379.9771,249.5886 378.5731,251.8646 377.1221,254.2166 C377.0811,253.6206 377.0441,253.1096 377.0121,252.5986 C376.8831,250.4756 376.6101,245.8586 376.6101,245.8586 C376.6101,245.8586 371.6231,244.3636 369.3031,243.6666 C369.2081,243.6386 369.1151,243.6036 368.9531,243.5506 C371.3861,242.6236 373.7571,241.7206 376.1401,240.8126 C376.0261,238.1096 375.9141,235.4346 375.8021,232.7586 C375.8241,232.7496 375.8471,232.7416 375.8691,232.7326 C377.5661,234.8056 379.2621,236.8776 380.9661,238.9586 C383.3501,238.0506 385.7181,237.1476 388.1601,236.2176 C388.0841,236.3616 388.0451,236.4456 387.9971,236.5246 C386.7341,238.5926 383.9901,243.0476 383.9901,243.0476 C383.9901,243.0476 387.3571,247.3176 388.9121,249.2926 C388.9801,249.3786 389.0411,249.4706 389.1501,249.6226" id="Fill-5" fill="#FFFFFF"></path>
                    <path d="M298.216,29.606 C293.611,28.226 289.128,26.883 284.614,25.532 C282.137,29.545 279.675,33.536 277.131,37.659 C277.06,36.615 276.994,35.718 276.94,34.821 C276.713,31.1 276.235,23.007 276.235,23.007 C276.235,23.007 267.493,20.387 263.426,19.165 C263.26,19.115 263.096,19.056 262.812,18.961 C267.078,17.336 271.235,15.753 275.41,14.163 C275.211,9.425 275.014,4.735 274.818,0.044 C274.857,0.03 274.896,0.014 274.936,7.38964445e-13 C277.91,3.632 280.884,7.264 283.87,10.912 C288.049,9.32 292.199,7.739 296.481,6.108 C296.347,6.36 296.279,6.508 296.195,6.647 C293.98,10.27 289.171,18.08 289.171,18.08 C289.171,18.08 295.073,25.566 297.799,29.026 C297.918,29.177 298.024,29.338 298.216,29.606" id="Fill-7" fill="#FFFFFF"></path>
                    <g id="Group-11" transform="translate(447.999700, 290.466300)">
                        <mask id="mask-2" fill="white">
                            <use xlink:href="#path-1"></use>
                        </mask>
                        <g id="Clip-10"></g>
                        <path d="M28.2364,23.7041 C24.6354,22.6261 21.1314,21.5761 17.6024,20.5181 C15.6654,23.6571 13.7404,26.7771 11.7524,30.0001 C11.6964,29.1831 11.6454,28.4831 11.6024,27.7811 C11.4254,24.8731 11.0514,18.5461 11.0514,18.5461 C11.0514,18.5461 4.2164,16.4971 1.0374,15.5421 C0.9074,15.5031 0.7794,15.4561 0.5574,15.3831 C3.8924,14.1121 7.1414,12.8741 10.4064,11.6301 C10.2504,7.9271 10.0964,4.2601 9.9434,0.5931 C9.9744,0.5811 10.0054,0.5691 10.0354,0.5581 C12.3614,3.3971 14.6864,6.2371 17.0204,9.0891 C20.2874,7.8451 23.5324,6.6081 26.8804,5.3331 C26.7754,5.5301 26.7224,5.6461 26.6554,5.7551 C24.9244,8.5871 21.1644,14.6921 21.1644,14.6921 C21.1644,14.6921 25.7794,20.5461 27.9104,23.2511 C28.0034,23.3691 28.0864,23.4951 28.2364,23.7041" id="Fill-9" fill="#FFFFFF" mask="url(#mask-2)"></path>
                    </g>
                </g>
            </g>
        </g>
    </g>
</svg>