<?xml version="1.0" encoding="utf-8"?>
<!-- Generator: Adobe Illustrator 23.0.0, SVG Export Plug-In . SVG Version: 6.00 Build 0)  -->
<svg version="1.1" id="Layer_1" xmlns="http://www.w3.org/2000/svg" xmlns:xlink="http://www.w3.org/1999/xlink" x="0px" y="0px"
	 viewBox="0 0 477 321" style="enable-background:new 0 0 477 321;" xml:space="preserve">
<style type="text/css">
	.st0{fill-rule:evenodd;clip-rule:evenodd;fill:#FFFFFF;}
	.st1{filter:url(#Adobe_OpacityMaskFilter);}
	.st2{mask:url(#mask-2_1_);fill-rule:evenodd;clip-rule:evenodd;fill:#FFFFFF;}
</style>
<g id="Star-5" transform="translate(43.308400, 40.219400)">
	<path id="Fill-1" class="st0" d="M35.4,29.6c-4.6-1.4-9.1-2.7-13.6-4.1c-2.5,4-4.9,8-7.5,12.1c-0.1-1-0.1-1.9-0.2-2.8
		C13.9,31.1,13.4,23,13.4,23s-8.7-2.6-12.8-3.8C0.4,19.1,0.3,19.1,0,19c4.3-1.6,8.4-3.2,12.6-4.8C12.4,9.4,12.2,4.7,12,0
		c0,0,0.1,0,0.1,0c3,3.6,5.9,7.3,8.9,10.9c4.2-1.6,8.3-3.2,12.6-4.8c-0.1,0.3-0.2,0.4-0.3,0.5c-2.2,3.6-7,11.4-7,11.4
		S32.3,25.6,35,29C35.1,29.2,35.2,29.3,35.4,29.6"/>
</g>
<g id="Star-4" transform="translate(0.000300, 240.213800)">
	<path id="Fill-3" class="st0" d="M20.2,16.9c-2.6-0.8-5.2-1.6-7.8-2.3c-1.4,2.3-2.8,4.6-4.3,6.9c0-0.6-0.1-1.1-0.1-1.6
		c-0.1-2.1-0.4-6.7-0.4-6.7s-5-1.5-7.3-2.2c-0.1,0-0.2-0.1-0.3-0.1C2.4,9.9,4.8,9,7.2,8.1C7.1,5.4,7,2.7,6.8,0c0,0,0,0,0.1,0
		c1.7,2.1,3.4,4.1,5.1,6.2c2.4-0.9,4.8-1.8,7.2-2.7c-0.1,0.1-0.1,0.2-0.2,0.3c-1.3,2.1-4,6.5-4,6.5s3.4,4.3,4.9,6.2
		C20,16.6,20.1,16.7,20.2,16.9"/>
</g>
<g id="Star-3" transform="translate(368.953400, 232.733300)">
	<path id="Fill-5" class="st0" d="M20.2,16.9c-2.6-0.8-5.2-1.6-7.8-2.3c-1.4,2.3-2.8,4.6-4.3,6.9c0-0.6-0.1-1.1-0.1-1.6
		c-0.1-2.1-0.4-6.7-0.4-6.7s-5-1.5-7.3-2.2c-0.1,0-0.2-0.1-0.3-0.1C2.4,9.9,4.8,9,7.2,8.1C7.1,5.4,7,2.7,6.8,0c0,0,0,0,0.1,0
		c1.7,2.1,3.4,4.1,5.1,6.2c2.4-0.9,4.8-1.8,7.2-2.7c-0.1,0.1-0.1,0.2-0.2,0.3c-1.3,2.1-4,6.5-4,6.5s3.4,4.3,4.9,6.2
		C20,16.6,20.1,16.7,20.2,16.9"/>
</g>
<g id="Star-2" transform="translate(262.812300, 0.000700)">
	<path id="Fill-7" class="st0" d="M35.4,29.6c-4.6-1.4-9.1-2.7-13.6-4.1c-2.5,4-4.9,8-7.5,12.1c-0.1-1-0.1-1.9-0.2-2.8
		C13.9,31.1,13.4,23,13.4,23s-8.7-2.6-12.8-3.8C0.4,19.1,0.3,19.1,0,19c4.3-1.6,8.4-3.2,12.6-4.8C12.4,9.4,12.2,4.7,12,0
		c0,0,0.1,0,0.1,0c3,3.6,5.9,7.3,8.9,10.9c4.2-1.6,8.3-3.2,12.6-4.8c-0.1,0.3-0.2,0.4-0.3,0.5c-2.2,3.6-7,11.4-7,11.4
		S32.3,25.6,35,29C35.1,29.2,35.2,29.3,35.4,29.6"/>
</g>
<g id="Star-1" transform="translate(448.000000, 290.467000)">
	<g id="Clip-10">
	</g>
	<defs>
		<filter id="Adobe_OpacityMaskFilter" filterUnits="userSpaceOnUse" x="0.6" y="0.6" width="27.7" height="29.4">
			<feColorMatrix  type="matrix" values="1 0 0 0 0  0 1 0 0 0  0 0 1 0 0  0 0 0 1 0"/>
		</filter>
	</defs>
	<mask maskUnits="userSpaceOnUse" x="0.6" y="0.6" width="27.7" height="29.4" id="mask-2_1_">
		<g class="st1">
			<polygon id="path-1_1_" class="st0" points="0.6,0.6 28.2,0.6 28.2,30 0.6,30 			"/>
		</g>
	</mask>
	<path id="Fill-9" class="st2" d="M28.2,23.7c-3.6-1.1-7.1-2.1-10.6-3.2c-1.9,3.1-3.9,6.3-5.8,9.5c-0.1-0.8-0.1-1.5-0.2-2.2
		c-0.2-2.9-0.6-9.2-0.6-9.2s-6.8-2-10-3c-0.1,0-0.3-0.1-0.5-0.2c3.3-1.3,6.6-2.5,9.8-3.8c-0.2-3.7-0.3-7.4-0.5-11c0,0,0.1,0,0.1,0
		c2.3,2.8,4.7,5.7,7,8.5c3.3-1.2,6.5-2.5,9.9-3.8c-0.1,0.2-0.2,0.3-0.2,0.4c-1.7,2.8-5.5,8.9-5.5,8.9s4.6,5.9,6.7,8.6
		C28,23.4,28.1,23.5,28.2,23.7"/>
</g>
</svg>
